# xmcd
#
# Track frame offsets:
#	150
#	12372
#	23257
#	33367
#	44882
#	55022
#	66730
#	79072
#	94112
#	107167
#	118365
#	129365
#	141842
#	153522
#	163835
#	172960
#	193825
#	209157
#	221465
#	235155
#
# Disc length: 3390 seconds
#
# Revision: 0
# Processed by: cddbd v1.4PL0 Copyright (c) Steve Scherf et al.
# Submitted via: dBpowerAMP V4.0
#
DISCID=250d3c14
DTITLE=Stoney Edwards - Poor Folks Stick Together
DYEAR=1900
DGENRE=Country
TTITLE0=A Two Dollar Toy
TTITLE1=Poor Folks Stick Together
TTITLE2=The Cute Little Waitress
TTITLE3=Odd-Job Dollar-Bill Man
TTITLE4=The Fishin' Song
TTITLE5=I Bought The Shoes That Just Walked Out On Me
TTITLE6=Good To Have You Home
TTITLE7=Mama's Old Quilt
TTITLE8=Don't Be Angry
TTITLE9=You Can't Call Yourself Country
TTITLE10=She's My Rock
TTITLE11=I Won't Make It Through The Day
TTITLE12=Hank And Lefty Raised My Country Soul
TTITLE13=Honky Tonk Heaven
TTITLE14=I Spent A Week There Last Night
TTITLE15=Jimmie Rodgers Blues
TTITLE16=Jeweldene Turner (The World Needs To Hear You Sing
TTITLE17=Mississippi You're On My Mind
TTITLE18=Head Bootlegger Man
TTITLE19=Blackbird (Hold Your Head High)
EXTD=
EXTT0=
EXTT1=
EXTT2=
EXTT3=
EXTT4=
EXTT5=
EXTT6=
EXTT7=
EXTT8=
EXTT9=
EXTT10=
EXTT11=
EXTT12=
EXTT13=
EXTT14=
EXTT15=
EXTT16=
EXTT17=
EXTT18=
EXTT19=
PLAYORDER=
